<?xml version="1.0" encoding="UTF-8"?>
<!DOCTYPE svg PUBLIC "-//W3C//DTD SVG 1.1//EN" "http://www.w3.org/Graphics/SVG/1.1/DTD/svg11.dtd">
<svg xmlns="http://www.w3.org/2000/svg" version="1.1" width="463px" height="383px" style="shape-rendering:geometricPrecision; text-rendering:geometricPrecision; image-rendering:optimizeQuality; fill-rule:evenodd; clip-rule:evenodd" xmlns:xlink="http://www.w3.org/1999/xlink">
<g><path style="opacity:1" fill="#fefefe" d="M -0.5,-0.5 C 153.833,-0.5 308.167,-0.5 462.5,-0.5C 462.5,127.167 462.5,254.833 462.5,382.5C 308.167,382.5 153.833,382.5 -0.5,382.5C -0.5,254.833 -0.5,127.167 -0.5,-0.5 Z"/></g>
<g><path style="opacity:1" fill="#027afe" d="M 215.5,20.5 C 271.942,17.9843 318.442,37.9843 355,80.5C 395.189,136.379 400.189,195.379 370,257.5C 343.241,303.555 303.408,330.722 250.5,339C 179.519,345.051 125.686,317.884 89,257.5C 58.7626,195.448 63.7626,136.448 104,80.5C 133.175,45.6621 170.342,25.6621 215.5,20.5 Z"/></g>
<g><path style="opacity:1" fill="#fbfcfe" d="M 223.5,120.5 C 237.885,119.094 247.385,125.094 252,138.5C 252.667,154.167 252.667,169.833 252,185.5C 244.976,202.601 233.143,207.268 216.5,199.5C 211.801,195.427 208.634,190.427 207,184.5C 206.333,168.833 206.333,153.167 207,137.5C 209.712,128.957 215.212,123.29 223.5,120.5 Z"/></g>
<g><path style="opacity:1" fill="#f7fafd" d="M 191.5,165.5 C 194.272,165.22 196.772,165.887 199,167.5C 198.167,178.501 200.333,188.835 205.5,198.5C 218.723,212.818 233.39,214.318 249.5,203C 258.61,192.917 262.11,181.084 260,167.5C 263.864,164.75 267.531,165.084 271,168.5C 273.688,190.145 265.855,206.645 247.5,218C 243.577,219.463 239.577,220.63 235.5,221.5C 235.5,224.167 235.5,226.833 235.5,229.5C 240.179,229.334 244.845,229.501 249.5,230C 252.333,233.663 252,236.996 248.5,240C 235.5,240.667 222.5,240.667 209.5,240C 206.133,236.867 205.799,233.534 208.5,230C 213.489,229.501 218.489,229.334 223.5,229.5C 223.5,226.833 223.5,224.167 223.5,221.5C 206.341,218.185 194.841,208.185 189,191.5C 188.333,183.5 188.333,175.5 189,167.5C 189.995,166.934 190.828,166.267 191.5,165.5 Z"/></g>
</svg>
