<?xml version="1.0" encoding="utf-8" ?>
<svg xmlns="http://www.w3.org/2000/svg" xmlns:xlink="http://www.w3.org/1999/xlink" width="1024" height="1024">
	<path fill="#F4F1DE" transform="scale(2 2)" d="M383.714 80.3742C383.428 82.1326 383.28 83.837 383.215 85.6171C383.303 89.9584 382.742 94.359 382.433 98.6908C384.421 99.4922 386.23 100.685 388.057 101.793C391.499 104.364 394.481 107.144 397.709 109.939L398.087 109.832C402.724 108.499 407.317 106.42 411.831 104.683C424.698 99.7306 422.711 103.856 426.864 113.985C429.024 119.25 433.803 126.758 433.788 132.453C429.485 137.173 416.46 138.865 410.277 142.823C409.789 147.375 409.18 151.846 408.291 156.338C409.507 157.3 410.735 158.243 411.864 159.308C416.004 161.649 419.361 163.398 421.245 168.017C420.272 170.098 418.692 171.836 417.499 173.789C414.791 177.74 411.766 181.276 410.277 185.912C407.558 188.064 406.451 191.945 402.376 191.759C401.001 191.199 399.716 190.554 398.41 189.852C396.493 188.485 394.599 187.064 392.542 185.912C390.464 184.748 388.402 183.495 386.183 182.62C385.333 183.055 384.528 183.563 383.714 184.061C379.726 186.068 375.785 187.657 371.492 188.919C371.321 191.161 371.052 193.309 370.717 195.527C370.607 220.039 365.3 209.289 344.243 207.843C323.638 205.733 336.735 198.809 334.335 182.98L333.778 182.62C331.745 181.617 328.767 178.858 327.695 176.883C327.122 176.135 326.284 175.537 325.566 174.93C304.748 181.463 309.359 188.992 299.662 167.102C291.442 148.548 290.509 151.165 310.813 144.795C310.543 139.223 312.325 133.85 313.895 128.567C310.4 126.795 298.447 119.249 296.728 116.276C296.554 114.193 297.686 112.32 298.747 110.613L306.464 98.2878C308.097 95.6838 310.402 90.2715 313.743 89.494C317.436 90.3331 327.068 97.8384 330.455 100.466C334.138 97.9684 338.701 95.4946 343.063 94.4624C353.322 92.0346 344.501 78.4831 350.135 74.4537C352.423 72.8174 379.21 75.3707 381.165 76.2141C382.58 76.8243 383.193 79.0395 383.714 80.3742ZM378.998 85.6171C379.241 83.8691 379.347 82.1364 379.43 80.3742C372.172 79.1575 360.758 78.336 353.4 78.4932C351.807 84.4457 351.564 91.2391 351.25 97.3814C343.978 98.9443 337.172 100.125 331.304 105.169C329.587 105.795 328.967 105.098 327.695 103.932C323.524 100.545 318.878 97.8295 314.757 94.3615C311.457 97.9346 303.742 110.426 301.314 115.088C303.344 116.327 305.374 117.567 307.425 118.774L307.616 118.931C310.549 121.299 319.081 124.513 318.743 128.567C316.033 135.199 315.083 141.353 314.757 148.469C309.551 149.767 303.641 151.445 298.873 153.899C299.856 157.116 301.425 160.173 302.885 163.199C304.372 167.907 306.983 172.298 308.816 176.883C329.595 168.406 322.986 167.02 338.753 181.337C338.726 182.229 338.632 183.177 338.753 184.061C338.754 190.131 337.51 196.327 337.144 202.413C338.612 202.641 340.118 202.809 341.559 203.171L366.078 206.696C365.638 199.832 367.084 192.77 367.568 185.912C376.756 182.395 377.969 181.678 386.183 176.883C392.17 180.186 397.305 184.897 403.642 187.626C407.397 180.784 412.169 174.48 416.524 168.017C415.887 166.195 410.041 162.93 408.291 161.775C406.82 160.182 404.278 158.931 402.376 157.905C405.431 152.289 406.342 146.128 405.446 139.801C413.006 136.307 421.259 133.582 429.177 131.005C426.902 124.739 424.004 118.632 422.082 112.252C420.933 110.322 420.166 108.705 419.698 106.479C414.243 108.59 403.577 111.65 399.389 115.088L396.606 115.988C391.771 110.015 385.847 103.683 378.087 101.793C377.82 96.4023 378.471 90.9772 378.998 85.6171Z"/>
	<path fill="#E07A5F" transform="scale(2 2)" d="M358.948 84.9483L360.282 84.8873C366.501 84.5832 372.758 85.7692 378.998 85.6171C378.471 90.9772 377.82 96.4023 378.087 101.793C385.847 103.683 391.771 110.015 396.606 115.988L399.389 115.088C400.747 116.785 402.204 118.4 403.642 120.029C408.887 118.27 416.963 114.561 422.082 112.252C424.004 118.632 426.902 124.739 429.177 131.005C421.259 133.582 413.006 136.307 405.446 139.801C406.342 146.128 405.431 152.289 402.376 157.905C404.278 158.931 406.82 160.182 408.291 161.775C408.137 165.208 413.957 167.864 416.524 168.017C412.169 174.48 407.397 180.784 403.642 187.626C397.305 184.897 392.17 180.186 386.183 176.883C377.969 181.678 376.756 182.395 367.568 185.912C367.084 192.77 365.638 199.832 366.078 206.696L341.559 203.171C342.666 201.448 343.851 189.614 344.243 186.856C342.398 185.959 340.581 184.993 338.753 184.061C338.632 183.177 338.726 182.229 338.753 181.337C322.986 167.02 329.595 168.406 308.816 176.883C306.983 172.298 304.372 167.907 302.885 163.199C303.659 161.942 303.993 160.725 304.322 159.308C308.329 156.54 317.19 154.317 322.065 152.855C321.06 145.571 321.178 139.341 323.908 132.453C322.351 130.994 320.49 129.791 318.743 128.567C319.081 124.513 310.549 121.299 307.616 118.931L307.425 118.774C310.526 112.997 315.385 104.71 319.53 99.6545C321.922 101.226 324.797 103.488 327.695 103.932C328.967 105.098 329.587 105.795 331.304 105.169C333.903 106.585 336.331 108.247 338.753 109.939C344.296 105.524 349.596 103.484 356.694 103.128C357.856 98.4022 359.014 89.7143 358.948 84.9483ZM376.011 134.567C373.115 127.646 366.065 123.402 358.593 124.083C351.121 124.763 344.954 130.211 343.356 137.542C341.758 144.873 345.099 152.393 351.61 156.121C355.07 160.968 362.168 163.897 367.963 162.869C381.705 160.431 386.127 141.413 376.441 134.479L376.011 134.567Z"/>
	<path fill="#3D405B" transform="scale(2 2)" d="M383.215 85.6171C385.519 85.367 387.222 85.2688 389.476 85.9864C389.792 90.3992 388.688 97.2516 388.057 101.793C386.23 100.685 384.421 99.4922 382.433 98.6908C382.742 94.359 383.303 89.9584 383.215 85.6171Z"/>
	<path fill="#F4F1DE" transform="scale(2 2)" d="M116.585 199.802C100.498 199.44 101.838 187.998 101.869 176.812L101.904 127.943C101.922 120.109 99.7413 108.335 108.369 104.204C113.383 101.803 143.448 103.119 150.043 103.119L181.178 103.122C192.704 103.126 206.047 99.9329 211.308 112.252C211.554 128.557 211.286 144.899 211.291 161.208L211.317 177.2C211.336 194.043 210.002 199.887 191.755 199.836L116.585 199.802ZM206.985 112.252C202.672 105.098 193.144 107.236 186.136 107.24L128.553 107.258C111.302 107.235 105.997 103.332 105.991 123.49L105.994 171.649C105.998 180.655 103.276 190.239 111.936 194.96C114.375 196.398 127.601 195.535 130.824 195.532L185.144 195.533C206.733 195.541 207.059 196.045 207.004 176.675L206.966 125.932C206.975 121.448 207.407 116.706 206.985 112.252Z"/>
	<path fill="#433D5B" transform="scale(2 2)" d="M111.936 194.96C111.278 188.125 110.998 183.694 110.998 176.608L110.994 130.719C110.877 107.608 115.243 112.227 136.245 112.246L185.894 112.246C192.05 112.249 200.894 113.001 206.709 112.288L206.985 112.252C207.407 116.706 206.975 121.448 206.966 125.932L207.004 176.675C207.059 196.045 206.733 195.541 185.144 195.533L130.824 195.532C127.601 195.535 114.375 196.398 111.936 194.96ZM142.984 125.786C133.51 128.005 136.88 146.48 136.882 154.514C136.884 160.156 134.767 170.767 140.554 174.367C145.772 177.614 158.495 167.096 164.58 164.254C169.134 160.762 176.052 158.258 179.852 154.493C181.29 149.682 180.429 147.397 176.489 144.711C171.498 141.31 147.562 125.397 142.984 125.786Z"/>
	<path fill="#433D5B" transform="scale(2 2)" d="M211.308 112.252C218.592 119.086 216.326 127.864 216.31 137.325L216.305 180.951C216.297 193.854 216.258 204.468 200.353 204.659C183.897 204.857 167.417 204.639 150.958 204.649L135.323 204.654C128.359 204.652 121.395 205.815 116.585 199.802L191.755 199.836C210.002 199.887 211.336 194.043 211.317 177.2L211.291 161.208C211.286 144.899 211.554 128.557 211.308 112.252Z"/>
	<path fill="#F4F1DE" transform="scale(2 2)" d="M351.61 156.121C345.099 152.393 341.758 144.873 343.356 137.542C344.954 130.211 351.121 124.763 358.593 124.083C366.065 123.402 373.115 127.646 376.011 134.567C378.854 141.361 377.053 149.212 371.534 154.087C366.014 158.963 358.001 159.781 351.61 156.121ZM358.567 128.459C351.476 129.311 346.443 135.784 347.365 142.865C348.287 149.947 354.809 154.916 361.882 153.924C368.856 152.947 373.741 146.534 372.832 139.55C371.923 132.567 365.559 127.619 358.567 128.459Z"/>
	<path fill="#3D405B" transform="scale(2 2)" d="M410.277 142.823C416.46 138.865 429.485 137.173 433.788 132.453C434.551 135.039 436.377 137.154 437.126 139.801C433.324 142.96 419.086 147.236 413.8 148.469C413.595 151.905 413.133 156.09 411.864 159.308C410.735 158.243 409.507 157.3 408.291 156.338C409.18 151.846 409.789 147.375 410.277 142.823Z"/>
	<path fill="#3D405B" transform="scale(2 2)" d="M421.245 168.017C421.409 169.271 421.768 170.494 422.082 171.718C423.445 173.323 426.897 174.923 426.985 177.186C427.115 180.548 415.131 197.542 411.864 199.802C409.38 198.859 402.737 195.072 401.159 193.215C401.435 192.832 401.431 192.431 401.417 191.985L402.376 191.759C406.451 191.945 407.558 188.064 410.277 185.912C414.166 188.34 417.07 180.205 419.698 176.883C418.839 175.904 418.175 174.893 417.499 173.789C418.692 171.836 420.272 170.098 421.245 168.017Z"/>
	<path fill="#E07A5F" transform="scale(2 2)" d="M333.778 182.62C327.791 183.093 320.39 188.248 314.781 188.266C306.025 184.098 325.379 178.215 327.353 177.082L327.695 176.883C328.767 178.858 331.745 181.617 333.778 182.62Z"/>
	<path fill="#F4F1DE" transform="scale(2 2)" d="M308.816 241.753C304.667 237.58 301.745 237.005 296.03 236.989L115.141 237.007C105.367 237.008 83.9915 234.234 81.3811 245.648C80.2039 250.796 83.5747 269.821 79.002 270.671C75.8864 269.429 76.747 250.32 77.1393 246.962C79.3705 227.868 105.726 232.756 119.53 232.757L250.284 232.764C257.559 214.881 267.025 199.438 282.487 187.207C284.425 185.674 290.777 178.9 292.962 183.002C293.217 185.982 288.145 188.398 286.179 189.919C272.673 200.371 260.175 216.621 254.811 232.764L285.208 232.751C297.012 232.74 312.586 230.499 315.623 246.566C342.953 245.634 371.567 241.209 399.333 239.762L413.843 239.118C422.921 238.781 428.521 238.888 429.177 249.527C426.277 258.967 428.978 285.265 421.719 289.17C417.241 291.579 405.548 290.814 400.387 290.986L340.958 293.612C333.819 293.946 326.674 294.476 319.53 294.174L317.238 294.174C316.054 294.314 312.637 295.103 311.797 293.847C308.987 289.646 314.588 249 308.816 241.753ZM424.407 249.527C425.132 239.864 414.948 243.128 407.773 243.39C393.838 243.9 380.072 245.198 366.194 246.462C349.399 247.992 332.331 248.863 315.623 251.15C315.81 264.282 315.618 277.439 315.623 290.573C317.483 290.403 319.37 290.161 321.236 290.102C327.16 290.173 333.163 289.695 339.083 289.44L402.028 286.901C406.954 286.751 411.954 286.746 416.86 286.293C423.37 285.692 422.037 276.416 422.435 271.625C423.046 264.264 423.602 256.869 424.407 249.527Z"/>
	<path fill="#3D405B" transform="scale(2 2)" d="M383.714 184.061C384.528 183.563 385.333 183.055 386.183 182.62C388.402 183.495 390.464 184.748 392.542 185.912L392.502 186.477L393.105 186.774C392.952 187.489 392.529 188.191 392.542 188.919C389.298 192.421 382.558 194.775 378.087 196.536C377.866 201.167 377.215 205.778 376.689 210.382C376.279 213.972 376.964 219.036 371.762 218.533C367.629 218.134 346.514 215.468 343.984 213.871C343.035 212.013 343.581 209.706 344.243 207.843C365.3 209.289 370.607 220.039 370.717 195.527C374.858 195.186 386.288 191.147 388.32 188.393C387.886 186.486 384.929 185.621 383.714 184.061Z"/>
	<path fill="#47595B" transform="scale(2 2)" d="M392.542 185.912C394.599 187.064 396.493 188.485 398.41 189.852C399.716 190.554 401.001 191.199 402.376 191.759L401.417 191.985C401.431 192.431 401.435 192.832 401.159 193.215C399.985 192.511 398.85 191.687 397.709 190.928C396.295 189.952 394.732 189.239 393.135 188.62L392.542 188.919C392.529 188.191 392.952 187.489 393.105 186.774L392.502 186.477L392.542 185.912Z"/>
	<path fill="#F4F1DE" transform="scale(2 2)" d="M181.243 227.908C177.326 229.157 177.008 225.254 175.187 222.578C172.436 218.537 165.414 214.062 168.552 210.21C171.567 210.046 185.569 224.864 181.243 227.908Z"/>
	<path fill="#E07A5F" transform="scale(2 2)" d="M86.0369 421.043L86.0274 269.431C86.0273 261.376 82.8276 242.817 94.8525 241.798C97.5476 241.57 100.348 241.725 103.058 241.737L308.816 241.753C314.588 249 308.987 289.646 311.797 293.847C312.637 295.103 316.054 294.314 317.238 294.174L317.238 331.722C318.835 331.7 320.473 331.607 322.065 331.722C309.424 332.266 312.146 332.652 312.093 345.001L311.925 362.727C311.888 366.613 311.476 370.489 311.373 374.373L310.876 399.349C310.693 406.641 313.199 421.122 303.835 422.927C299.386 423.785 288.63 423.253 283.489 423.248L110.482 423.239C105.492 423.239 89.7074 424.637 86.0369 421.043ZM240.868 310.724C238.856 302.098 215.053 292.397 207.176 287.997L189.898 278.491C181.747 273.951 171.161 266.247 164.094 278.317C161.412 282.897 162.245 289.196 162.246 294.276L162.258 332.537C162.26 340.381 160.293 350.49 168.485 355.076C170.381 356.138 173.75 357.2 175.929 356.644L176.093 357.155C183.946 363.758 201.217 349.965 208.515 345.852L233.148 331.812C239.619 328.104 246.438 325.887 245.767 316.88C245.643 315.208 243.027 310.526 240.868 310.724ZM132.768 401.259C132.354 400.328 131.893 398.921 130.858 398.539C120.548 394.733 107.366 402.574 118.952 402.664C115.78 415.196 150.002 405.917 132.768 401.259ZM225.66 402.052C226.056 398.966 225.416 398.429 222.272 398.282C219.962 398.174 210.962 397.787 209.657 399.291C208.074 401.116 211.304 402.725 212.881 402.664C212.757 404.165 212.165 406.909 214.063 407.535C216.128 408.216 236.398 409.804 231.149 403.405C229.981 401.981 227.349 402.147 225.66 402.052ZM164.58 402.052C164.695 401.034 164.889 400.028 164.652 399.019C162.947 398.112 148.067 396.691 149.232 400.923C149.639 402.404 151.199 402.666 152.521 402.664C152.078 405.09 151.882 407.658 154.87 408.018C157.654 408.354 170.843 409.711 171.322 405.244C171.731 401.426 167.135 402.036 164.58 402.052ZM286.17 402.052C286.205 401.08 286.402 399.578 285.756 398.779C283.887 396.466 259.649 399.102 272.229 402.664C271.216 404.501 270.685 407.225 273.28 407.758C275.333 408.179 295.692 410.022 290.767 403.534C289.749 402.193 287.697 402.227 286.17 402.052ZM247.84 402.052C245.111 402.605 243.395 406.384 246.578 407.694C249.397 408.855 254.124 408.239 257.146 408.036C258.039 407.748 258.78 407.534 259.241 406.641C262.478 400.375 250.551 401.936 247.84 402.052Z"/>
	<path fill="#3D405B" transform="scale(2 2)" d="M321.236 256.288C326.568 255.707 331.993 255.628 337.344 255.224L388.478 250.997C400.427 250.116 412.415 249.269 424.407 249.527C423.602 256.869 423.046 264.264 422.435 271.625C422.037 276.416 423.37 285.692 416.86 286.293C411.954 286.746 406.954 286.751 402.028 286.901L339.083 289.44C333.163 289.695 327.16 290.173 321.236 290.102L321.236 256.288Z"/>
	<path fill="#3D405B" transform="scale(2 2)" d="M319.53 294.174C326.674 294.476 333.819 293.946 340.958 293.612L400.387 290.986C405.548 290.814 417.241 291.579 421.719 289.17C428.978 285.265 426.277 258.967 429.177 249.527C438.714 249.31 435.511 260.75 435.479 268.099C435.444 276.317 438.985 294.061 429.082 294.999C415.999 296.237 402.66 296.273 389.522 296.671L341.499 298.392C337.829 298.501 324.19 299.817 321.88 299.349C319.677 298.902 323.435 294.418 319.53 294.174Z"/>
	<path fill="#F4F1DE" transform="scale(2 2)" d="M175.929 356.644C173.75 357.2 170.381 356.138 168.485 355.076C160.293 350.49 162.26 340.381 162.258 332.537L162.246 294.276C162.245 289.196 161.412 282.897 164.094 278.317C171.161 266.247 181.747 273.951 189.898 278.491L207.176 287.997C215.053 292.397 238.856 302.098 240.868 310.724C241.781 316.173 240.258 320.416 235.642 323.286C227.446 328.381 218.748 332.784 210.403 337.644L190.15 349.367C185.8 351.89 180.976 355.714 175.929 356.644ZM173.817 276.285C168.717 278.254 166.851 280.753 166.595 285.987C166.098 296.144 166.488 306.495 166.488 316.669C166.489 323.79 162.025 358.587 177.335 351.708C187.581 347.105 200.239 338.262 210.591 332.651C215.626 329.691 236.132 319.594 237.16 315.147C239.156 306.515 218.153 298.93 211.559 295.297L187.167 282.034C183.067 279.814 178.676 276.069 173.817 276.285Z"/>
	<path fill="#F4F1DE" transform="scale(2 2)" d="M80.4191 292.199C74.1322 292.687 77.462 279.126 78.1221 278.241C84.5021 278.218 81.1808 291.275 80.4191 292.199Z"/>
	<path fill="#F4F1DE" transform="scale(2 2)" d="M80.4191 314.18C74.9531 314.715 76.8539 302.902 78.1221 301.17C84.0359 301.717 80.9924 313.547 80.4191 314.18Z"/>
	<path fill="#F4F1DE" transform="scale(2 2)" d="M362.442 320.313C356.142 320.498 358.936 306.936 360.246 305.451C366.315 305.325 363.475 318.672 362.442 320.313Z"/>
	<path fill="#F4F1DE" transform="scale(2 2)" d="M322.065 331.722C334.419 330.59 346.997 330.564 359.39 330.109L409.689 328.653C418.128 328.493 429.594 326.961 427.306 339.494C428.158 345.695 427.502 368.726 426.594 375.39C425.069 386.58 412.698 383.448 404.781 383.006L345.479 379.482C337.253 379.009 328.853 378.786 320.68 377.753L315.623 377.753C315.586 379.625 315.586 381.489 315.623 383.361C315.213 390.763 315.697 412.386 314.379 418.022C311.594 429.927 297.071 427.031 288.025 427.03L104.19 427.017C98.4505 427.013 92.4257 426.577 86.7268 427.023C75.4151 418.392 77.0974 415.105 77.101 402.461L77.1014 381.102C77.1005 363.553 76.7838 345.939 77.1288 328.397C77.3125 319.055 81.2881 320.052 81.2559 329.692L81.228 404.949C81.204 411.234 80.2361 416.517 85.7522 420.824L86.0369 421.043C89.7074 424.637 105.492 423.239 110.482 423.239L283.489 423.248C288.63 423.253 299.386 423.785 303.835 422.927C313.199 421.122 310.693 406.641 310.876 399.349L311.373 374.373C311.476 370.489 311.888 366.613 311.925 362.727L312.093 345.001C312.146 332.652 309.424 332.266 322.065 331.722ZM423.554 337.68C423.559 330.732 415.788 332.875 411.232 332.937L388.16 333.278C364.194 333.862 340.074 334.679 316.154 336.112C317.04 348.604 315.517 361.401 315.623 373.91C317.298 373.907 319.009 373.829 320.68 373.91C324.538 374.363 328.533 374.341 332.417 374.581L398.475 378.467C405.392 378.828 421.33 382.813 422.441 374.502C423.63 365.598 423.76 346.781 423.554 337.68Z"/>
	<path fill="#3D405B" transform="scale(2 2)" d="M321.236 341.403C324.535 341.753 327.906 341.523 331.216 341.407L410.772 337.928C415.012 337.754 419.316 337.407 423.554 337.68C423.76 346.781 423.63 365.598 422.441 374.502C421.33 382.813 405.392 378.828 398.475 378.467L332.417 374.581C328.533 374.341 324.538 374.363 320.68 373.91C319.7 366.277 321.248 350.456 321.236 341.403Z"/>
	<path fill="#3D405B" transform="scale(2 2)" d="M427.306 339.494C433.236 339.446 435.739 342.481 435.541 348.377C435.174 359.333 435.416 373.655 434.343 384.128C433.894 388.514 431.743 389.481 427.449 389.312C414.947 388.817 402.442 387.615 389.953 386.887L333.121 383.924C328.983 383.713 324.822 383.381 320.68 383.361C320.527 381.457 320.467 379.658 320.68 377.753C328.853 378.786 337.253 379.009 345.479 379.482L404.781 383.006C412.698 383.448 425.069 386.58 426.594 375.39C427.502 368.726 428.158 345.695 427.306 339.494Z"/>
	<path fill="#E07A5F" transform="scale(2 2)" d="M315.623 383.361C316.916 383.359 318.239 383.304 319.53 383.361C319.833 389.454 319.457 417.645 318.089 423.502C315.307 435.406 301.425 433.263 292.332 433.254L109.461 433.242C100.986 433.252 92.4964 434.632 86.7268 427.023C92.4257 426.577 98.4505 427.013 104.19 427.017L288.025 427.03C297.071 427.031 311.594 429.927 314.379 418.022C315.697 412.386 315.213 390.763 315.623 383.361Z"/>
	<path fill="#F4F1DE" transform="scale(2 2)" d="M118.952 402.664C107.366 402.574 120.548 394.733 130.858 398.539C131.893 398.921 132.354 400.328 132.768 401.259C129.475 403.823 122.989 402.315 118.952 402.664Z"/>
	<path fill="#F4F1DE" transform="scale(2 2)" d="M164.58 402.052C160.612 403.073 156.562 402.428 152.521 402.664C151.199 402.666 149.639 402.404 149.232 400.923C148.067 396.691 162.947 398.112 164.652 399.019C164.889 400.028 164.695 401.034 164.58 402.052Z"/>
	<path fill="#F4F1DE" transform="scale(2 2)" d="M225.66 402.052C221.024 403.288 216.356 401.858 212.881 402.664C211.304 402.725 208.074 401.116 209.657 399.291C210.962 397.787 219.962 398.174 222.272 398.282C225.416 398.429 226.056 398.966 225.66 402.052Z"/>
	<path fill="#F4F1DE" transform="scale(2 2)" d="M286.17 402.052C281.578 403.131 274.927 401.871 272.229 402.664C259.649 399.102 283.887 396.466 285.756 398.779C286.402 399.578 286.205 401.08 286.17 402.052Z"/>
	<path fill="#F4F1DE" transform="scale(2 2)" d="M132.768 401.259C150.002 405.917 115.78 415.196 118.952 402.664C122.989 402.315 129.475 403.823 132.768 401.259Z"/>
	<path fill="#F4F1DE" transform="scale(2 2)" d="M152.521 402.664C156.562 402.428 160.612 403.073 164.58 402.052C167.135 402.036 171.731 401.426 171.322 405.244C170.843 409.711 157.654 408.354 154.87 408.018C151.882 407.658 152.078 405.09 152.521 402.664Z"/>
</svg>
